<svg xmlns="http://www.w3.org/2000/svg" width="22.223" height="22.223"><path d="M11.111 0a11.111 11.111 0 1011.114 11.111A11.11 11.11 0 0011.111 0zm2.914 1.944a9.64 9.64 0 016.25 6.25l-4.744.321a5.129 5.129 0 00-1.806-1.816zM4.311 4.311a9.547 9.547 0 013.884-2.367l.3 4.754a5.247 5.247 0 00-1.811 1.811l-4.745-.314a9.653 9.653 0 012.372-3.884zm3.884 15.967a9.64 9.64 0 01-6.25-6.25l4.754-.3a5.172 5.172 0 001.805 1.797zm2.917-5.534a3.633 3.633 0 113.633-3.633 3.636 3.636 0 01-3.634 3.633zm6.8 3.168a9.582 9.582 0 01-3.887 2.366l-.312-4.753a5.146 5.146 0 001.822-1.827l4.744.321a9.565 9.565 0 01-2.367 3.893z" fill="#b5b5c3"/></svg>