<svg xmlns="http://www.w3.org/2000/svg" width="21.938" height="16.704"><path d="M21.042 5.685a.246.246 0 01.4.192v8.363a1.963 1.963 0 01-1.967 1.96H2.463A1.963 1.963 0 01.5 14.241V5.882a.245.245 0 01.4-.192c.916.712 2.131 1.615 6.3 4.646.863.63 2.319 1.955 3.771 1.947 1.46.012 2.944-1.341 3.775-1.947C18.915 7.3 20.125 6.4 21.042 5.685zm-10.073 5.284c.949.016 2.315-1.194 3-1.693 5.427-3.938 5.84-4.282 7.091-5.263a.979.979 0 00.376-.773v-.777A1.963 1.963 0 0019.475.5H2.463A1.963 1.963 0 00.5 2.463v.777a.985.985 0 00.376.773c1.251.977 1.664 1.325 7.091 5.263.687.499 2.053 1.709 3.002 1.693z" fill="#fff" stroke="#b5b5c3"/></svg>