<svg xmlns="http://www.w3.org/2000/svg" width="14.15" height="15.5" viewBox="0 0 14.15 15.5">
  <g id="icone-compartilhar" transform="translate(1 1)">
    <path id="Path_85" data-name="Path 85" d="M26.55,5.025A2.025,2.025,0,1,1,24.525,3,2.025,2.025,0,0,1,26.55,5.025Z" transform="translate(-14.4 -3)" fill="none" stroke="#3f4254" stroke-linecap="round" stroke-linejoin="round" stroke-width="2"/>
    <path id="Path_86" data-name="Path 86" d="M8.55,15.525A2.025,2.025,0,1,1,6.525,13.5,2.025,2.025,0,0,1,8.55,15.525Z" transform="translate(-4.5 -8.775)" fill="none" stroke="#3f4254" stroke-linecap="round" stroke-linejoin="round" stroke-width="2"/>
    <path id="Path_87" data-name="Path 87" d="M26.55,26.025A2.025,2.025,0,1,1,24.525,24,2.025,2.025,0,0,1,26.55,26.025Z" transform="translate(-14.4 -14.55)" fill="none" stroke="#3f4254" stroke-linecap="round" stroke-linejoin="round" stroke-width="2"/>
    <path id="Path_88" data-name="Path 88" d="M12.885,20.265l4.61,2.687" transform="translate(-9.112 -12.496)" fill="none" stroke="#3f4254" stroke-linecap="round" stroke-linejoin="round" stroke-width="2"/>
    <path id="Path_89" data-name="Path 89" d="M17.489,9.765l-4.6,2.686" transform="translate(-9.112 -6.721)" fill="none" stroke="#3f4254" stroke-linecap="round" stroke-linejoin="round" stroke-width="2"/>
  </g>
</svg>
