<svg xmlns="http://www.w3.org/2000/svg" width="21.938" height="16.704" viewBox="0 0 21.938 16.704"><path d="M20.542,9.685a.246.246,0,0,1,.4.192v8.363A1.963,1.963,0,0,1,18.975,20.2H1.963A1.963,1.963,0,0,1,0,18.241V9.882A.245.245,0,0,1,.4,9.69c.916.712,2.131,1.615,6.3,4.646.863.63,2.319,1.955,3.771,1.947,1.46.012,2.944-1.341,3.775-1.947C18.415,11.3,19.625,10.4,20.542,9.685ZM10.469,14.969c.949.016,2.315-1.194,3-1.693,5.427-3.938,5.84-4.282,7.091-5.263a.979.979,0,0,0,.376-.773V6.463A1.963,1.963,0,0,0,18.975,4.5H1.963A1.963,1.963,0,0,0,0,6.463V7.24a.985.985,0,0,0,.376.773c1.251.977,1.664,1.325,7.091,5.263C8.154,13.775,9.52,14.985,10.469,14.969Z" transform="translate(0.5 -4)" fill="#fff" stroke="#b5b5c3" stroke-width="1"/></svg>